<svg xmlns="http://www.w3.org/2000/svg" viewBox="0 0 200 200" fill="none">
  <rect width="200" height="200" rx="44" fill="#FBF8F1" />
  <path
    d="M35 78C35 63.0883 47.0883 51 62 51H94L116 34C121.193 29.987 128.348 29.2798 134.236 32.1884L166 47.8749C175.278 52.456 181 61.9058 181 72.2527V123C181 137.912 168.912 150 154 150H46C40.4772 150 36 145.523 36 140V118.5C36 112.977 40.4772 108.5 46 108.5H62L35 91V78Z"
    fill="#A0A27E"
  />
  <path
    d="M48 67.5L96.5 67.5L118.5 50.5C122.042 47.7624 126.921 47.2843 130.932 49.2714L161.5 64.5C165.55 66.5177 168.76 69.9044 170.557 74.0822L126 74C117.695 74 110.036 70.0137 105.113 63.3154L101.5 58.4L76.5 89C69.3373 97.7698 58.6134 102.879 47.295 103H46V82.5C46 76.4772 46.7629 71.5273 48 67.5Z"
    fill="#F2E4B7"
  />
  <path
    d="M96 67L123.5 67C130.023 67 136.39 68.9906 141.754 72.7066L166 89.5L154.5 89.5C143.596 89.5 133.024 85.7134 124.593 78.7847L96 55V67Z"
    fill="#E3C54E"
  />
  <path
    d="M49 104C67.1972 104 82.4014 110.25 94.6128 122.751C102.993 131.33 114.344 136.124 126.336 136.124H164"
    stroke="#FBF8F1"
    stroke-linecap="round"
    stroke-width="12"
  />
  <path
    d="M60 93.5C73 82.5 81 72 90 58"
    stroke="#A88C3A"
    stroke-linecap="round"
    stroke-width="10"
  />
  <path
    d="M75 112C86.9261 112 96.5923 121.666 96.5923 133.592V150H53C47.4772 150 43 145.523 43 140V133.592C43 121.666 52.6662 112 64.5923 112H75Z"
    fill="#F7E9C1"
  />
</svg>
